<svg xmlns="http://www.w3.org/2000/svg" xmlns:xlink="http://www.w3.org/1999/xlink" width="500" zoomAndPan="magnify" viewBox="0 0 375 374.999991" height="500" preserveAspectRatio="xMidYMid meet" version="1.0"><defs><g/><linearGradient x1="0" gradientTransform="matrix(0.75, 0, 0, 0.75, 0.0000045, 0)" y1="250" x2="499.999979" gradientUnits="userSpaceOnUse" y2="250" id="a581130396"><stop stop-opacity="1" stop-color="rgb(0%, 0%, 0%)" offset="0"/><stop stop-opacity="1" stop-color="rgb(0.175476%, 0.175476%, 0.175476%)" offset="0.0078125"/><stop stop-opacity="1" stop-color="rgb(0.526428%, 0.526428%, 0.526428%)" offset="0.015625"/><stop stop-opacity="1" stop-color="rgb(0.878906%, 0.878906%, 0.878906%)" offset="0.0234375"/><stop stop-opacity="1" stop-color="rgb(1.231384%, 1.231384%, 1.231384%)" offset="0.03125"/><stop stop-opacity="1" stop-color="rgb(1.583862%, 1.583862%, 1.583862%)" offset="0.0390625"/><stop stop-opacity="1" stop-color="rgb(1.93634%, 1.93634%, 1.93634%)" offset="0.046875"/><stop stop-opacity="1" stop-color="rgb(2.288818%, 2.288818%, 2.288818%)" offset="0.0546875"/><stop stop-opacity="1" stop-color="rgb(2.641296%, 2.641296%, 2.641296%)" offset="0.0625"/><stop stop-opacity="1" stop-color="rgb(2.993774%, 2.993774%, 2.993774%)" offset="0.0703125"/><stop stop-opacity="1" stop-color="rgb(3.346252%, 3.346252%, 3.346252%)" offset="0.078125"/><stop stop-opacity="1" stop-color="rgb(3.69873%, 3.69873%, 3.69873%)" offset="0.0859375"/><stop stop-opacity="1" stop-color="rgb(4.051208%, 4.051208%, 4.051208%)" offset="0.09375"/><stop stop-opacity="1" stop-color="rgb(4.402161%, 4.402161%, 4.402161%)" offset="0.101562"/><stop stop-opacity="1" stop-color="rgb(4.754639%, 4.754639%, 4.754639%)" offset="0.109375"/><stop stop-opacity="1" stop-color="rgb(5.107117%, 5.107117%, 5.107117%)" offset="0.117188"/><stop stop-opacity="1" stop-color="rgb(5.459595%, 5.459595%, 5.459595%)" offset="0.125"/><stop stop-opacity="1" stop-color="rgb(5.812073%, 5.812073%, 5.812073%)" offset="0.132812"/><stop stop-opacity="1" stop-color="rgb(6.164551%, 6.164551%, 6.164551%)" offset="0.140625"/><stop stop-opacity="1" stop-color="rgb(6.517029%, 6.517029%, 6.517029%)" offset="0.148437"/><stop stop-opacity="1" stop-color="rgb(6.869507%, 6.869507%, 6.869507%)" offset="0.15625"/><stop stop-opacity="1" stop-color="rgb(7.221985%, 7.221985%, 7.221985%)" offset="0.164062"/><stop stop-opacity="1" stop-color="rgb(7.574463%, 7.574463%, 7.574463%)" offset="0.171875"/><stop stop-opacity="1" stop-color="rgb(7.926941%, 7.926941%, 7.926941%)" offset="0.179687"/><stop stop-opacity="1" stop-color="rgb(8.277893%, 8.277893%, 8.277893%)" offset="0.1875"/><stop stop-opacity="1" stop-color="rgb(8.630371%, 8.630371%, 8.630371%)" offset="0.195312"/><stop stop-opacity="1" stop-color="rgb(8.982849%, 8.982849%, 8.982849%)" offset="0.203125"/><stop stop-opacity="1" stop-color="rgb(9.335327%, 9.335327%, 9.335327%)" offset="0.210938"/><stop stop-opacity="1" stop-color="rgb(9.687805%, 9.687805%, 9.687805%)" offset="0.21875"/><stop stop-opacity="1" stop-color="rgb(10.040283%, 10.040283%, 10.040283%)" offset="0.226562"/><stop stop-opacity="1" stop-color="rgb(10.392761%, 10.392761%, 10.392761%)" offset="0.234375"/><stop stop-opacity="1" stop-color="rgb(10.745239%, 10.745239%, 10.745239%)" offset="0.242188"/><stop stop-opacity="1" stop-color="rgb(11.097717%, 11.097717%, 11.097717%)" offset="0.25"/><stop stop-opacity="1" stop-color="rgb(11.450195%, 11.450195%, 11.450195%)" offset="0.257812"/><stop stop-opacity="1" stop-color="rgb(11.802673%, 11.802673%, 11.802673%)" offset="0.265625"/><stop stop-opacity="1" stop-color="rgb(12.155151%, 12.155151%, 12.155151%)" offset="0.273437"/><stop stop-opacity="1" stop-color="rgb(12.506104%, 12.506104%, 12.506104%)" offset="0.28125"/><stop stop-opacity="1" stop-color="rgb(12.858582%, 12.858582%, 12.858582%)" offset="0.289062"/><stop stop-opacity="1" stop-color="rgb(13.21106%, 13.21106%, 13.21106%)" offset="0.296875"/><stop stop-opacity="1" stop-color="rgb(13.563538%, 13.563538%, 13.563538%)" offset="0.304687"/><stop stop-opacity="1" stop-color="rgb(13.916016%, 13.916016%, 13.916016%)" offset="0.3125"/><stop stop-opacity="1" stop-color="rgb(14.268494%, 14.268494%, 14.268494%)" offset="0.320312"/><stop stop-opacity="1" stop-color="rgb(14.620972%, 14.620972%, 14.620972%)" offset="0.328125"/><stop stop-opacity="1" stop-color="rgb(14.97345%, 14.97345%, 14.97345%)" offset="0.335937"/><stop stop-opacity="1" stop-color="rgb(15.325928%, 15.325928%, 15.325928%)" offset="0.34375"/><stop stop-opacity="1" stop-color="rgb(15.678406%, 15.678406%, 15.678406%)" offset="0.351562"/><stop stop-opacity="1" stop-color="rgb(16.030884%, 16.030884%, 16.030884%)" offset="0.359375"/><stop stop-opacity="1" stop-color="rgb(16.381836%, 16.381836%, 16.381836%)" offset="0.367187"/><stop stop-opacity="1" stop-color="rgb(16.734314%, 16.734314%, 16.734314%)" offset="0.375"/><stop stop-opacity="1" stop-color="rgb(17.086792%, 17.086792%, 17.086792%)" offset="0.382812"/><stop stop-opacity="1" stop-color="rgb(17.43927%, 17.43927%, 17.43927%)" offset="0.390625"/><stop stop-opacity="1" stop-color="rgb(17.791748%, 17.791748%, 17.791748%)" offset="0.398438"/><stop stop-opacity="1" stop-color="rgb(18.144226%, 18.144226%, 18.144226%)" offset="0.40625"/><stop stop-opacity="1" stop-color="rgb(18.496704%, 18.496704%, 18.496704%)" offset="0.414062"/><stop stop-opacity="1" stop-color="rgb(18.849182%, 18.849182%, 18.849182%)" offset="0.421875"/><stop stop-opacity="1" stop-color="rgb(19.20166%, 19.20166%, 19.20166%)" offset="0.429688"/><stop stop-opacity="1" stop-color="rgb(19.554138%, 19.554138%, 19.554138%)" offset="0.4375"/><stop stop-opacity="1" stop-color="rgb(19.906616%, 19.906616%, 19.906616%)" offset="0.445312"/><stop stop-opacity="1" stop-color="rgb(20.257568%, 20.257568%, 20.257568%)" offset="0.453125"/><stop stop-opacity="1" stop-color="rgb(20.610046%, 20.610046%, 20.610046%)" offset="0.460938"/><stop stop-opacity="1" stop-color="rgb(20.962524%, 20.962524%, 20.962524%)" offset="0.46875"/><stop stop-opacity="1" stop-color="rgb(21.315002%, 21.315002%, 21.315002%)" offset="0.476562"/><stop stop-opacity="1" stop-color="rgb(21.66748%, 21.66748%, 21.66748%)" offset="0.484375"/><stop stop-opacity="1" stop-color="rgb(22.019958%, 22.019958%, 22.019958%)" offset="0.492188"/><stop stop-opacity="1" stop-color="rgb(22.372437%, 22.372437%, 22.372437%)" offset="0.5"/><stop stop-opacity="1" stop-color="rgb(22.724915%, 22.724915%, 22.724915%)" offset="0.507812"/><stop stop-opacity="1" stop-color="rgb(23.077393%, 23.077393%, 23.077393%)" offset="0.515625"/><stop stop-opacity="1" stop-color="rgb(23.429871%, 23.429871%, 23.429871%)" offset="0.523437"/><stop stop-opacity="1" stop-color="rgb(23.782349%, 23.782349%, 23.782349%)" offset="0.53125"/><stop stop-opacity="1" stop-color="rgb(24.134827%, 24.134827%, 24.134827%)" offset="0.539062"/><stop stop-opacity="1" stop-color="rgb(24.485779%, 24.485779%, 24.485779%)" offset="0.546875"/><stop stop-opacity="1" stop-color="rgb(24.838257%, 24.838257%, 24.838257%)" offset="0.554687"/><stop stop-opacity="1" stop-color="rgb(25.190735%, 25.190735%, 25.190735%)" offset="0.5625"/><stop stop-opacity="1" stop-color="rgb(25.543213%, 25.543213%, 25.543213%)" offset="0.570312"/><stop stop-opacity="1" stop-color="rgb(25.895691%, 25.895691%, 25.895691%)" offset="0.578125"/><stop stop-opacity="1" stop-color="rgb(26.248169%, 26.248169%, 26.248169%)" offset="0.585937"/><stop stop-opacity="1" stop-color="rgb(26.600647%, 26.600647%, 26.600647%)" offset="0.59375"/><stop stop-opacity="1" stop-color="rgb(26.953125%, 26.953125%, 26.953125%)" offset="0.601562"/><stop stop-opacity="1" stop-color="rgb(27.305603%, 27.305603%, 27.305603%)" offset="0.609375"/><stop stop-opacity="1" stop-color="rgb(27.658081%, 27.658081%, 27.658081%)" offset="0.617187"/><stop stop-opacity="1" stop-color="rgb(28.010559%, 28.010559%, 28.010559%)" offset="0.625"/><stop stop-opacity="1" stop-color="rgb(28.361511%, 28.361511%, 28.361511%)" offset="0.632812"/><stop stop-opacity="1" stop-color="rgb(28.713989%, 28.713989%, 28.713989%)" offset="0.640625"/><stop stop-opacity="1" stop-color="rgb(29.066467%, 29.066467%, 29.066467%)" offset="0.648437"/><stop stop-opacity="1" stop-color="rgb(29.418945%, 29.418945%, 29.418945%)" offset="0.65625"/><stop stop-opacity="1" stop-color="rgb(29.771423%, 29.771423%, 29.771423%)" offset="0.664062"/><stop stop-opacity="1" stop-color="rgb(30.123901%, 30.123901%, 30.123901%)" offset="0.671875"/><stop stop-opacity="1" stop-color="rgb(30.476379%, 30.476379%, 30.476379%)" offset="0.679687"/><stop stop-opacity="1" stop-color="rgb(30.828857%, 30.828857%, 30.828857%)" offset="0.6875"/><stop stop-opacity="1" stop-color="rgb(31.181335%, 31.181335%, 31.181335%)" offset="0.695312"/><stop stop-opacity="1" stop-color="rgb(31.533813%, 31.533813%, 31.533813%)" offset="0.703125"/><stop stop-opacity="1" stop-color="rgb(31.886292%, 31.886292%, 31.886292%)" offset="0.710937"/><stop stop-opacity="1" stop-color="rgb(32.237244%, 32.237244%, 32.237244%)" offset="0.71875"/><stop stop-opacity="1" stop-color="rgb(32.589722%, 32.589722%, 32.589722%)" offset="0.726562"/><stop stop-opacity="1" stop-color="rgb(32.9422%, 32.9422%, 32.9422%)" offset="0.734375"/><stop stop-opacity="1" stop-color="rgb(33.294678%, 33.294678%, 33.294678%)" offset="0.742187"/><stop stop-opacity="1" stop-color="rgb(33.647156%, 33.647156%, 33.647156%)" offset="0.75"/><stop stop-opacity="1" stop-color="rgb(33.999634%, 33.999634%, 33.999634%)" offset="0.757812"/><stop stop-opacity="1" stop-color="rgb(34.352112%, 34.352112%, 34.352112%)" offset="0.765625"/><stop stop-opacity="1" stop-color="rgb(34.70459%, 34.70459%, 34.70459%)" offset="0.773438"/><stop stop-opacity="1" stop-color="rgb(35.057068%, 35.057068%, 35.057068%)" offset="0.78125"/><stop stop-opacity="1" stop-color="rgb(35.409546%, 35.409546%, 35.409546%)" offset="0.789062"/><stop stop-opacity="1" stop-color="rgb(35.762024%, 35.762024%, 35.762024%)" offset="0.796875"/><stop stop-opacity="1" stop-color="rgb(36.114502%, 36.114502%, 36.114502%)" offset="0.804688"/><stop stop-opacity="1" stop-color="rgb(36.465454%, 36.465454%, 36.465454%)" offset="0.8125"/><stop stop-opacity="1" stop-color="rgb(36.817932%, 36.817932%, 36.817932%)" offset="0.820312"/><stop stop-opacity="1" stop-color="rgb(37.17041%, 37.17041%, 37.17041%)" offset="0.828125"/><stop stop-opacity="1" stop-color="rgb(37.522888%, 37.522888%, 37.522888%)" offset="0.835938"/><stop stop-opacity="1" stop-color="rgb(37.875366%, 37.875366%, 37.875366%)" offset="0.84375"/><stop stop-opacity="1" stop-color="rgb(38.227844%, 38.227844%, 38.227844%)" offset="0.851562"/><stop stop-opacity="1" stop-color="rgb(38.580322%, 38.580322%, 38.580322%)" offset="0.859375"/><stop stop-opacity="1" stop-color="rgb(38.9328%, 38.9328%, 38.9328%)" offset="0.867188"/><stop stop-opacity="1" stop-color="rgb(39.285278%, 39.285278%, 39.285278%)" offset="0.875"/><stop stop-opacity="1" stop-color="rgb(39.637756%, 39.637756%, 39.637756%)" offset="0.882812"/><stop stop-opacity="1" stop-color="rgb(39.990234%, 39.990234%, 39.990234%)" offset="0.890625"/><stop stop-opacity="1" stop-color="rgb(40.341187%, 40.341187%, 40.341187%)" offset="0.898438"/><stop stop-opacity="1" stop-color="rgb(40.693665%, 40.693665%, 40.693665%)" offset="0.90625"/><stop stop-opacity="1" stop-color="rgb(41.046143%, 41.046143%, 41.046143%)" offset="0.914062"/><stop stop-opacity="1" stop-color="rgb(41.398621%, 41.398621%, 41.398621%)" offset="0.921875"/><stop stop-opacity="1" stop-color="rgb(41.751099%, 41.751099%, 41.751099%)" offset="0.929688"/><stop stop-opacity="1" stop-color="rgb(42.103577%, 42.103577%, 42.103577%)" offset="0.9375"/><stop stop-opacity="1" stop-color="rgb(42.456055%, 42.456055%, 42.456055%)" offset="0.945312"/><stop stop-opacity="1" stop-color="rgb(42.808533%, 42.808533%, 42.808533%)" offset="0.953125"/><stop stop-opacity="1" stop-color="rgb(43.161011%, 43.161011%, 43.161011%)" offset="0.960938"/><stop stop-opacity="1" stop-color="rgb(43.513489%, 43.513489%, 43.513489%)" offset="0.96875"/><stop stop-opacity="1" stop-color="rgb(43.865967%, 43.865967%, 43.865967%)" offset="0.976562"/><stop stop-opacity="1" stop-color="rgb(44.216919%, 44.216919%, 44.216919%)" offset="0.984375"/><stop stop-opacity="1" stop-color="rgb(44.569397%, 44.569397%, 44.569397%)" offset="0.992188"/><stop stop-opacity="1" stop-color="rgb(44.921875%, 44.921875%, 44.921875%)" offset="1"/></linearGradient></defs><rect x="-37.5" fill="url(#a581130396)" width="450" y="-37.499999" height="449.999989"/><g fill="#ffffff" fill-opacity="1"><g transform="translate(60.062857, 230.501982)"><g><path d="M 39.53125 -98.34375 L 62.71875 -30.875 L 63 -30.875 L 86.609375 -98.34375 L 120.265625 -98.34375 L 120.265625 -95.828125 L 109.796875 -95.828125 L 109.796875 -2.515625 L 120.265625 -2.515625 L 120.265625 0 L 75.984375 0 L 75.984375 -2.515625 L 88 -2.515625 L 88 -93.3125 L 87.71875 -93.3125 L 55.171875 0 L 51.40625 0 L 18.015625 -94.984375 L 17.734375 -94.984375 L 17.734375 -15.359375 C 17.734375 -10.523438 18.410156 -7.175781 19.765625 -5.3125 C 21.117188 -3.445312 23.84375 -2.515625 27.9375 -2.515625 L 30.171875 -2.515625 L 30.171875 0 L 3.078125 0 L 3.078125 -2.515625 L 3.625 -2.515625 C 7.164062 -2.515625 9.84375 -3.398438 11.65625 -5.171875 C 13.476562 -6.941406 14.390625 -9.921875 14.390625 -14.109375 L 14.390625 -95.828125 L 3.765625 -95.828125 L 3.765625 -98.34375 Z M 39.53125 -98.34375 "/></g></g></g><g fill="#ffffff" fill-opacity="1"><g transform="translate(211.333625, 230.501982)"><g><path d="M 77.390625 -93.453125 C 80.273438 -93.453125 81.8125 -94.847656 82 -97.640625 L 84.515625 -97.640625 L 84.515625 -64.671875 L 82 -64.671875 C 81.25 -69.046875 79.921875 -73.234375 78.015625 -77.234375 C 76.109375 -81.242188 73.828125 -84.785156 71.171875 -87.859375 C 68.515625 -90.929688 65.53125 -93.398438 62.21875 -95.265625 C 58.914062 -97.128906 55.5 -98.0625 51.96875 -98.0625 C 44.144531 -98.0625 38.4375 -94.054688 34.84375 -86.046875 C 31.257812 -78.035156 29.46875 -65.742188 29.46875 -49.171875 C 29.46875 -40.328125 29.882812 -32.804688 30.71875 -26.609375 C 31.5625 -20.421875 32.890625 -15.367188 34.703125 -11.453125 C 36.523438 -7.546875 38.804688 -4.707031 41.546875 -2.9375 C 44.296875 -1.164062 47.628906 -0.28125 51.546875 -0.28125 C 57.691406 -0.28125 63.234375 -2.234375 68.171875 -6.140625 C 73.109375 -10.054688 76.972656 -15.320312 79.765625 -21.9375 C 80.503906 -23.789062 81.109375 -25.742188 81.578125 -27.796875 C 82.046875 -29.847656 82.460938 -31.988281 82.828125 -34.21875 L 84.9375 -34.21875 L 84.9375 0 L 82.828125 0 C 82.554688 -1.113281 82 -2.347656 81.15625 -3.703125 C 80.320312 -5.054688 79.160156 -5.734375 77.671875 -5.734375 C 76.546875 -5.734375 75.257812 -5.3125 73.8125 -4.46875 C 72.375 -3.632812 70.609375 -2.726562 68.515625 -1.75 C 66.421875 -0.769531 63.882812 0.132812 60.90625 0.96875 C 57.925781 1.8125 54.335938 2.234375 50.140625 2.234375 C 43.535156 2.234375 37.507812 0.882812 32.0625 -1.8125 C 26.613281 -4.507812 21.957031 -8.140625 18.09375 -12.703125 C 14.226562 -17.273438 11.242188 -22.5625 9.140625 -28.5625 C 7.046875 -34.570312 6 -40.882812 6 -47.5 C 6 -54.195312 7.117188 -60.710938 9.359375 -67.046875 C 11.597656 -73.378906 14.738281 -79.035156 18.78125 -84.015625 C 22.832031 -89.003906 27.675781 -93.007812 33.3125 -96.03125 C 38.945312 -99.0625 45.117188 -100.578125 51.828125 -100.578125 C 54.429688 -100.578125 56.941406 -100.203125 59.359375 -99.453125 C 61.785156 -98.710938 64.066406 -97.898438 66.203125 -97.015625 C 68.347656 -96.128906 70.351562 -95.3125 72.21875 -94.5625 C 74.082031 -93.820312 75.804688 -93.453125 77.390625 -93.453125 Z M 77.390625 -93.453125 "/></g></g></g><path stroke-linecap="butt" transform="matrix(0, -0.75, 0.75, 0, 186.744412, 260.460921)" fill="none" stroke-linejoin="miter" d="M -0.0000216048 1.002242 L 194.578116 1.002242 " stroke="#ffffff" stroke-width="2" stroke-opacity="1" stroke-miterlimit="4"/><path fill="#000000" d="M 84.199219 170.035156 L 290.792969 170.035156 L 290.792969 196.898438 L 84.199219 196.898438 L 84.199219 170.035156 " fill-opacity="1" fill-rule="nonzero"/><g fill="#ffffff" fill-opacity="1"><g transform="translate(95.537474, 188.341512)"><g><path d="M 12.078125 0 L 12.078125 -11.015625 L 10.109375 -11.015625 L 6.671875 -2.625 L 3.25 -11.015625 L 1.28125 -11.015625 L 1.28125 0 L 2.65625 0 L 2.65625 -9.171875 L 6.390625 0 L 6.953125 0 L 10.703125 -9.171875 L 10.703125 0 Z M 12.078125 0 "/></g></g></g><g fill="#ffffff" fill-opacity="1"><g transform="translate(118.349847, 188.341512)"><g><path d="M 10.71875 0 L 6.28125 -11.015625 L 4.578125 -11.015625 L 0.15625 0 L 1.671875 0 L 2.640625 -2.4375 L 8.21875 -2.4375 L 9.203125 0 Z M 7.8125 -3.671875 L 3.03125 -3.671875 L 5.4375 -9.796875 Z M 7.8125 -3.671875 "/></g></g></g><g fill="#ffffff" fill-opacity="1"><g transform="translate(138.668965, 188.341512)"><g><path d="M 0.625 -1.546875 C 1.53125 -0.53125 2.9375 0.203125 4.859375 0.203125 C 7.828125 0.203125 8.921875 -1.4375 8.921875 -3.03125 C 8.921875 -5.34375 6.875 -5.90625 5.078125 -6.390625 C 3.671875 -6.765625 2.390625 -7.109375 2.390625 -8.203125 C 2.390625 -9.25 3.34375 -9.953125 4.65625 -9.953125 C 5.859375 -9.953125 7.015625 -9.546875 7.84375 -8.640625 L 8.671875 -9.640625 C 7.75 -10.625 6.4375 -11.1875 4.75 -11.1875 C 2.59375 -11.1875 0.96875 -9.9375 0.96875 -8.125 C 0.96875 -5.96875 2.9375 -5.46875 4.703125 -5 C 6.15625 -4.609375 7.5 -4.25 7.5 -2.921875 C 7.5 -2.078125 6.875 -1.03125 4.90625 -1.03125 C 3.359375 -1.03125 2.15625 -1.78125 1.4375 -2.59375 Z M 0.625 -1.546875 "/></g></g></g><g fill="#ffffff" fill-opacity="1"><g transform="translate(157.799234, 188.341512)"><g><path d="M 5.390625 0 L 5.390625 -9.796875 L 8.890625 -9.796875 L 8.890625 -11.015625 L 0.53125 -11.015625 L 0.53125 -9.796875 L 4.015625 -9.796875 L 4.015625 0 Z M 5.390625 0 "/></g></g></g><g fill="#ffffff" fill-opacity="1"><g transform="translate(176.665322, 188.341512)"><g><path d="M 8.5 0 L 8.5 -1.21875 L 2.65625 -1.21875 L 2.65625 -5.015625 L 8.390625 -5.015625 L 8.390625 -6.25 L 2.65625 -6.25 L 2.65625 -9.796875 L 8.5 -9.796875 L 8.5 -11.015625 L 1.28125 -11.015625 L 1.28125 0 Z M 8.5 0 "/></g></g></g><g fill="#ffffff" fill-opacity="1"><g transform="translate(195.514896, 188.341512)"><g><path d="M 9.28125 0 L 6.3125 -4.5 C 7.8125 -4.625 9.171875 -5.71875 9.171875 -7.703125 C 9.171875 -9.734375 7.734375 -11.015625 5.71875 -11.015625 L 1.28125 -11.015625 L 1.28125 0 L 2.65625 0 L 2.65625 -4.375 L 4.859375 -4.375 L 7.65625 0 Z M 7.75 -7.703125 C 7.75 -6.453125 6.859375 -5.578125 5.546875 -5.578125 L 2.65625 -5.578125 L 2.65625 -9.796875 L 5.546875 -9.796875 C 6.859375 -9.796875 7.75 -8.9375 7.75 -7.703125 Z M 7.75 -7.703125 "/></g></g></g><g fill="#ffffff" fill-opacity="1"><g transform="translate(215.008429, 188.341512)"><g/></g></g><g fill="#ffffff" fill-opacity="1"><g transform="translate(228.722878, 188.341512)"><g><path d="M 5.046875 0 C 8.46875 0 10.703125 -2.359375 10.703125 -5.5 C 10.703125 -8.625 8.46875 -11.015625 5.046875 -11.015625 L 1.28125 -11.015625 L 1.28125 0 Z M 2.65625 -9.796875 L 5.046875 -9.796875 C 7.78125 -9.796875 9.28125 -7.875 9.28125 -5.5 C 9.28125 -3.140625 7.734375 -1.21875 5.046875 -1.21875 L 2.65625 -1.21875 Z M 2.65625 -9.796875 "/></g></g></g><g fill="#ffffff" fill-opacity="1"><g transform="translate(249.735488, 188.341512)"><g><path d="M 8.5 0 L 8.5 -1.21875 L 2.65625 -1.21875 L 2.65625 -5.015625 L 8.390625 -5.015625 L 8.390625 -6.25 L 2.65625 -6.25 L 2.65625 -9.796875 L 8.5 -9.796875 L 8.5 -11.015625 L 1.28125 -11.015625 L 1.28125 0 Z M 8.5 0 "/></g></g></g><g fill="#ffffff" fill-opacity="1"><g transform="translate(268.585062, 188.341512)"><g><path d="M 6.28125 0 L 10.71875 -11.015625 L 9.15625 -11.015625 L 5.4375 -1.5 L 1.71875 -11.015625 L 0.15625 -11.015625 L 4.578125 0 Z M 6.28125 0 "/></g></g></g></svg>